<svg width="1200" height="263" viewBox="0 0 1200 263" fill="none" xmlns="http://www.w3.org/2000/svg">
<path d="M0 258.087V4.34977H101.857C128.198 4.34977 148.255 10.512 162.029 22.8363C176.045 34.919 183.053 50.5057 183.053 69.5964C183.053 85.5456 178.703 98.3532 170.004 108.019C161.546 117.444 151.155 123.848 138.83 127.231C153.33 130.131 165.291 137.38 174.716 148.98C184.141 160.338 188.853 173.629 188.853 188.853C188.853 208.91 181.603 225.463 167.104 238.513C152.605 251.562 132.064 258.087 105.482 258.087H0ZM46.3976 110.919H94.9701C108.019 110.919 118.048 107.899 125.056 101.857C132.064 95.8159 135.568 87.2372 135.568 76.1211C135.568 65.4883 132.064 57.1512 125.056 51.1098C118.29 44.8268 108.019 41.6854 94.2451 41.6854H46.3976V110.919ZM46.3976 220.389H98.2324C112.007 220.389 122.64 217.247 130.131 210.964C137.864 204.439 141.73 195.377 141.73 183.778C141.73 171.937 137.743 162.633 129.768 155.867C121.794 149.101 111.04 145.717 97.5075 145.717H46.3976V220.389Z" fill="white"/>
<path d="M347.569 262.436C322.195 262.436 299.963 256.878 280.872 245.762C262.023 234.646 247.161 219.301 236.287 199.727C225.654 179.912 220.338 157.075 220.338 131.218C220.338 105.361 225.654 82.6457 236.287 63.0717C247.161 43.2561 262.023 27.7902 280.872 16.6741C299.963 5.55805 322.195 0 347.569 0C372.701 0 394.812 5.55805 413.903 16.6741C432.993 27.7902 447.855 43.2561 458.488 63.0717C469.121 82.6457 474.437 105.361 474.437 131.218C474.437 157.075 469.121 179.912 458.488 199.727C447.855 219.301 432.993 234.646 413.903 245.762C394.812 256.878 372.701 262.436 347.569 262.436ZM347.569 220.751C371.734 220.751 390.946 212.777 405.203 196.827C419.702 180.878 426.952 159.008 426.952 131.218C426.952 103.428 419.702 81.5583 405.203 65.6091C390.946 49.6599 371.734 41.6854 347.569 41.6854C323.403 41.6854 304.071 49.6599 289.572 65.6091C275.072 81.5583 267.823 103.428 267.823 131.218C267.823 159.008 275.072 180.878 289.572 196.827C304.071 212.777 323.403 220.751 347.569 220.751Z" fill="white"/>
<path d="M515.403 258.087V4.34977H561.801L681.057 183.053V4.34977H727.455V258.087H681.057L561.801 79.7459V258.087H515.403Z" fill="white"/>
<path d="M776.645 258.087V4.34977H863.278C893.001 4.34977 917.408 9.66617 936.499 20.299C955.831 30.6901 970.089 45.431 979.272 64.5217C988.696 83.3707 993.408 105.603 993.408 131.218C993.408 156.834 988.696 179.187 979.272 198.277C970.089 217.126 955.831 231.867 936.499 242.5C917.408 252.891 893.001 258.087 863.278 258.087H776.645ZM823.042 218.214H861.103C882.368 218.214 899.163 214.831 911.488 208.064C923.812 201.056 932.632 191.148 937.949 178.341C943.265 165.291 945.923 149.584 945.923 131.218C945.923 113.094 943.265 97.5075 937.949 84.4581C932.632 71.4088 923.812 61.3802 911.488 54.3722C899.163 47.3642 882.368 43.8602 861.103 43.8602H823.042V218.214Z" fill="white"/>
<path d="M1034.35 258.087V4.34977H1200V41.6854H1080.74V111.282H1189.13V147.53H1080.74V220.751H1200V258.087H1034.35Z" fill="white"/>
</svg>
