<svg width="1200" height="409" viewBox="0 0 1200 409" fill="none" xmlns="http://www.w3.org/2000/svg">
<path d="M0 258.087V4.34977H101.857C128.198 4.34977 148.255 10.512 162.029 22.8363C176.045 34.919 183.053 50.5057 183.053 69.5964C183.053 85.5456 178.703 98.3532 170.004 108.019C161.546 117.444 151.155 123.848 138.83 127.231C153.33 130.131 165.291 137.38 174.716 148.98C184.141 160.338 188.853 173.629 188.853 188.853C188.853 208.91 181.603 225.463 167.104 238.513C152.605 251.562 132.064 258.087 105.482 258.087H0ZM46.3976 110.919H94.9701C108.019 110.919 118.048 107.899 125.056 101.857C132.064 95.8159 135.568 87.2372 135.568 76.1211C135.568 65.4883 132.064 57.1512 125.056 51.1098C118.29 44.8268 108.019 41.6854 94.2451 41.6854H46.3976V110.919ZM46.3976 220.389H98.2324C112.007 220.389 122.64 217.247 130.131 210.964C137.864 204.439 141.73 195.377 141.73 183.778C141.73 171.937 137.743 162.633 129.768 155.867C121.794 149.101 111.04 145.717 97.5075 145.717H46.3976V220.389Z" fill="#111111"/>
<path d="M347.569 262.436C322.195 262.436 299.963 256.878 280.872 245.762C262.023 234.646 247.161 219.301 236.287 199.727C225.654 179.912 220.338 157.075 220.338 131.218C220.338 105.361 225.654 82.6457 236.287 63.0717C247.161 43.2561 262.023 27.7902 280.872 16.6741C299.963 5.55805 322.195 0 347.569 0C372.701 0 394.812 5.55805 413.903 16.6741C432.993 27.7902 447.855 43.2561 458.488 63.0717C469.121 82.6457 474.437 105.361 474.437 131.218C474.437 157.075 469.121 179.912 458.488 199.727C447.855 219.301 432.993 234.646 413.903 245.762C394.812 256.878 372.701 262.436 347.569 262.436ZM347.569 220.751C371.734 220.751 390.946 212.777 405.203 196.827C419.702 180.878 426.952 159.008 426.952 131.218C426.952 103.428 419.702 81.5583 405.203 65.6091C390.946 49.6599 371.734 41.6854 347.569 41.6854C323.403 41.6854 304.071 49.6599 289.572 65.6091C275.072 81.5583 267.823 103.428 267.823 131.218C267.823 159.008 275.072 180.878 289.572 196.827C304.071 212.777 323.403 220.751 347.569 220.751Z" fill="#111111"/>
<path d="M515.403 258.087V4.34977H561.801L681.057 183.053V4.34977H727.455V258.087H681.057L561.801 79.7459V258.087H515.403Z" fill="#111111"/>
<path d="M776.645 258.087V4.34977H863.278C893.001 4.34977 917.408 9.66617 936.499 20.299C955.831 30.6901 970.089 45.431 979.272 64.5217C988.696 83.3707 993.408 105.603 993.408 131.218C993.408 156.834 988.696 179.187 979.272 198.277C970.089 217.126 955.831 231.867 936.499 242.5C917.408 252.891 893.001 258.087 863.278 258.087H776.645ZM823.042 218.214H861.103C882.368 218.214 899.163 214.831 911.488 208.064C923.812 201.056 932.632 191.148 937.949 178.341C943.265 165.291 945.923 149.584 945.923 131.218C945.923 113.094 943.265 97.5075 937.949 84.4581C932.632 71.4088 923.812 61.3802 911.488 54.3722C899.163 47.3642 882.368 43.8602 861.103 43.8602H823.042V218.214Z" fill="#111111"/>
<path d="M1034.35 258.087V4.34977H1200V41.6854H1080.74V111.282H1189.13V147.53H1080.74V220.751H1200V258.087H1034.35Z" fill="#111111"/>
<path d="M242.8 406.551V320.724H298.22V333.353H258.494V357.384H290.618V369.768H258.494V406.551H242.8Z" fill="#555555"/>
<path d="M376.542 406.551V320.724H392.236V406.551H376.542Z" fill="#555555"/>
<path d="M475.08 406.551V320.724H490.774V394.29H528.784V406.551H475.08Z" fill="#555555"/>
<path d="M608.821 406.551V320.724H627.458L654.8 375.163L681.775 320.724H700.412V406.551H684.717V347.33L660.808 394.29H648.425L624.516 347.33V406.551H608.821Z" fill="#555555"/>
<path d="M783.273 406.551V320.724H839.306V333.353H798.967V356.894H835.628V369.155H798.967V393.922H839.306V406.551H783.273Z" fill="#555555"/>
<path d="M949.671 408.022C943.377 408.022 937.819 406.96 932.996 404.835C928.173 402.628 924.373 399.521 921.593 395.516C918.814 391.429 917.384 386.484 917.302 380.68H933.854C934.018 384.686 935.448 388.078 938.146 390.857C940.925 393.554 944.726 394.903 949.549 394.903C953.717 394.903 957.028 393.922 959.48 391.961C961.932 389.917 963.158 387.22 963.158 383.868C963.158 380.353 962.055 377.615 959.848 375.653C957.723 373.692 954.862 372.098 951.265 370.871C947.669 369.645 943.827 368.338 939.74 366.948C933.119 364.659 928.051 361.717 924.536 358.12C921.103 354.523 919.386 349.742 919.386 343.775C919.305 338.707 920.49 334.374 922.942 330.778C925.476 327.1 928.909 324.279 933.241 322.318C937.574 320.274 942.56 319.252 948.2 319.252C953.922 319.252 958.949 320.274 963.281 322.318C967.695 324.361 971.128 327.222 973.58 330.9C976.114 334.579 977.463 338.952 977.626 344.02H960.829C960.747 340.995 959.562 338.339 957.273 336.05C955.066 333.68 951.96 332.494 947.955 332.494C944.522 332.413 941.62 333.271 939.249 335.069C936.961 336.786 935.816 339.32 935.816 342.671C935.816 345.532 936.715 347.821 938.514 349.537C940.312 351.172 942.764 352.562 945.87 353.706C948.976 354.85 952.532 356.076 956.537 357.384C960.788 358.856 964.671 360.572 968.185 362.534C971.7 364.496 974.52 367.111 976.645 370.381C978.771 373.569 979.833 377.697 979.833 382.765C979.833 387.26 978.689 391.429 976.4 395.271C974.112 399.113 970.719 402.219 966.224 404.589C961.728 406.878 956.21 408.022 949.671 408.022Z" fill="#555555"/>
</svg>
