<svg width="305" height="140" viewBox="0 0 305 140" fill="none" xmlns="http://www.w3.org/2000/svg">
<path d="M0 72.7701H33.7553C43.9338 72.7701 50.4771 64.0582 50.4771 52.2715C50.4771 42.9446 44.557 36.385 36.0403 36.385V34.8476C43.8299 34.3352 47.9844 29.0055 47.9844 19.5762C47.9844 8.09695 42.1681 1.22992 30.8471 1.22992H0V72.7701ZM12.9828 41.8172H30.0162C34.2746 41.8172 36.8712 43.867 36.8712 49.1967V54.2188C36.8712 59.5485 34.2746 61.5983 30.0162 61.5983H12.9828V41.8172ZM12.9828 12.4017H27.939C32.0935 12.4017 34.5862 14.2465 34.5862 19.2687V24.0859C34.5862 29.108 32.0935 30.9529 27.939 30.9529H12.9828V12.4017Z" fill="white"/>
<path d="M88.0347 74C105.38 74 116.493 63.3407 116.493 37C116.493 10.6593 105.38 0 88.0347 0C70.6897 0 59.5764 10.6593 59.5764 37C59.5764 63.3407 70.6897 74 88.0347 74ZM88.0347 62.7258C78.6871 62.7258 73.2863 56.6787 73.2863 45.9169V28.0831C73.2863 17.3213 78.6871 11.2742 88.0347 11.2742C97.3823 11.2742 102.783 17.3213 102.783 28.0831V45.9169C102.783 56.6787 97.3823 62.7258 88.0347 62.7258Z" fill="white"/>
<path d="M166.929 72.7701H181.366V1.22992H169.11V41.5097L169.941 54.3213H168.487L163.397 41.9197L143.352 1.22992H128.915V72.7701H141.171V32.4903L140.34 19.6787H141.794L146.883 32.0803L166.929 72.7701Z" fill="white"/>
<path d="M196.568 72.7701H221.287C238.632 72.7701 249.018 62.4183 249.018 37C249.018 11.5817 238.632 1.22992 221.287 1.22992H196.568V72.7701ZM209.55 61.5983V12.4017H221.287C230.115 12.4017 235.205 17.8338 235.205 28.5956V45.4044C235.205 56.1662 230.115 61.5983 221.287 61.5983H209.55Z" fill="white"/>
<path d="M305 72.7701V61.5983H274.464V41.9197H301.157V31.0554H274.464V12.4017H305V1.22992H261.482V72.7701H305Z" fill="white"/>
<path d="M5.89545 139.319V121.771H20.1335V116.547H5.89545V104.963H21.9689V99.6814H0V139.319H5.89545Z" fill="white"/>
<path d="M69.1686 139.319V134.492H64.4411V104.508H69.1686V99.6814H53.8181V104.508H58.5456V134.492H53.8181V139.319H69.1686Z" fill="white"/>
<path d="M123.004 139.319V134.037H108.877V99.6814H102.981V139.319H123.004Z" fill="white"/>
<path d="M182.172 139.319H187.845V99.6814H180.948L174.719 113.537L171.994 121.374H171.493L168.768 113.537L162.483 99.6814H155.531V139.319H161.204V114.9L160.815 108.256H161.482L164.152 114.787L171.66 130.914L179.224 114.787L181.894 108.143H182.561L182.172 114.9V139.319Z" fill="white"/>
<path d="M245.651 139.319V134.037H229.021V121.771H244.038V116.547H229.021V104.963H245.651V99.6814H223.126V139.319H245.651Z" fill="white"/>
<path d="M290.152 140C298.273 140 303 135.741 303 127.848C303 121.26 300.108 118.194 292.711 116.49L289.541 115.752C285.814 114.843 284.201 113.31 284.201 110.017C284.201 105.985 286.315 104.281 290.542 104.281C294.268 104.281 296.604 105.701 298.606 108.597L302.666 104.963C299.885 100.874 296.159 99 290.653 99C282.922 99 278.306 102.861 278.306 110.187C278.306 116.49 281.532 119.841 288.484 121.431L291.654 122.112C295.603 123.078 297.105 124.781 297.105 128.245C297.105 132.561 294.713 134.719 290.208 134.719C286.426 134.719 283.478 132.902 281.198 129.665L277.138 133.47C280.141 137.672 284.424 140 290.152 140Z" fill="white"/>
</svg>
