<svg width="175" height="80" viewBox="0 0 175 80" fill="none" xmlns="http://www.w3.org/2000/svg">
<path d="M0.357422 41.5829H19.6462C25.4624 41.5829 29.2015 36.6047 29.2015 29.8694C29.2015 24.5398 25.8186 20.7915 20.9519 20.7915V19.9129C25.4031 19.6201 27.7771 16.5746 27.7771 11.1864C27.7771 4.62683 24.4535 0.702811 17.9844 0.702811H0.357422V41.5829ZM7.77617 23.8955H17.5096C19.9429 23.8955 21.4267 25.0669 21.4267 28.1124V30.9822C21.4267 34.0277 19.9429 35.199 17.5096 35.199H7.77617V23.8955ZM7.77617 7.08666H16.3226C18.6966 7.08666 20.121 8.14088 20.121 11.0107V13.7634C20.121 16.6332 18.6966 17.6874 16.3226 17.6874H7.77617V7.08666Z" fill="#211E19"/>
<path d="M50.663 42.2857C60.5744 42.2857 66.9249 36.1947 66.9249 21.1429C66.9249 6.09102 60.5744 0 50.663 0C40.7515 0 34.4011 6.09102 34.4011 21.1429C34.4011 36.1947 40.7515 42.2857 50.663 42.2857ZM50.663 35.8433C45.3215 35.8433 42.2353 32.3878 42.2353 26.2382V16.0475C42.2353 9.8979 45.3215 6.44242 50.663 6.44242C56.0045 6.44242 59.0907 9.8979 59.0907 16.0475V26.2382C59.0907 32.3878 56.0045 35.8433 50.663 35.8433Z" fill="#211E19"/>
<path d="M95.7453 41.5829H103.995V0.702811H96.9916V23.7198L97.4665 31.0408H96.6355L93.7274 23.9541L82.2729 0.702811H74.0232V41.5829H81.0265V18.5659L80.5517 11.245H81.3826L84.2907 18.3316L95.7453 41.5829Z" fill="#211E19"/>
<path d="M112.682 41.5829H126.807C136.719 41.5829 142.654 35.6676 142.654 21.1429C142.654 6.61812 136.719 0.702811 126.807 0.702811H112.682V41.5829ZM120.101 35.199V7.08666H126.807C131.852 7.08666 134.76 10.1907 134.76 16.3403V25.9454C134.76 32.095 131.852 35.199 126.807 35.199H120.101Z" fill="#211E19"/>
<path d="M174.643 41.5829V35.199H157.194V23.9541H172.447V17.7459H157.194V7.08666H174.643V0.702811H149.776V41.5829H174.643Z" fill="#211E19"/>
<path d="M3.72625 79.6105V69.5836H11.8623V66.5982H3.72625V59.9785H12.9111V56.9607H0.357422V79.6105H3.72625Z" fill="#6B6B6B"/>
<path d="M39.8823 79.6105V76.8523H37.1809V59.7189H39.8823V56.9607H31.1106V59.7189H33.8121V76.8523H31.1106V79.6105H39.8823Z" fill="#6B6B6B"/>
<path d="M70.6452 79.6105V76.5927H62.5727V56.9607H59.2039V79.6105H70.6452Z" fill="#6B6B6B"/>
<path d="M104.456 79.6105H107.697V56.9607H103.756L100.197 64.8784L98.6397 69.3564H98.3536L96.7964 64.8784L93.2051 56.9607H89.2324V79.6105H92.4741V65.6572L92.2516 61.8606H92.633L94.1585 65.5923L98.449 74.8079L102.771 65.5923L104.297 61.7957H104.678L104.456 65.6572V79.6105Z" fill="#6B6B6B"/>
<path d="M140.729 79.6105V76.5927H131.227V69.5836H139.808V66.5982H131.227V59.9785H140.729V56.9607H127.858V79.6105H140.729Z" fill="#6B6B6B"/>
<path d="M166.159 79.9999C170.799 79.9999 173.5 77.5661 173.5 73.0557C173.5 69.2915 171.848 67.5392 167.621 66.5657L165.809 66.1439C163.68 65.6247 162.758 64.7486 162.758 62.8665C162.758 60.5626 163.966 59.5891 166.381 59.5891C168.511 59.5891 169.845 60.4003 170.99 62.0553L173.31 59.9785C171.721 57.6421 169.591 56.5713 166.445 56.5713C162.027 56.5713 159.389 58.7779 159.389 62.9639C159.389 66.5658 161.233 68.4803 165.205 69.3889L167.017 69.7783C169.273 70.3299 170.131 71.3034 170.131 73.2828C170.131 75.749 168.765 76.9821 166.191 76.9821C164.029 76.9821 162.345 75.9437 161.042 74.094L158.722 76.2682C160.438 78.6694 162.885 79.9999 166.159 79.9999Z" fill="#6B6B6B"/>
</svg>
